# xmcd
#
# Track frame offsets: 
#        150
#        16056
#        38259
#        59290
#        84061
#        99404
#        119483
#        135445
#        164678
#        184308
#        205237
#        234285
#        249748
#        272938
#        291509
#        311005
#        326890
#        347756
#
# Disc length: 4783 seconds
#
# Revision: 1
# Processed by: cddbd v1.5.2PL0 Copyright (c) Steve Scherf et al.
# Submitted via: ExactAudioCopy v0.95a5
#
DISCID=0212ad12
DTITLE=Various Artist - Akella Presents - Blues-Women - vol.5  CD1
DYEAR=2010
DGENRE=Blues
TTITLE0=Spooky- Spooky - BEVERLY SKEETE
TTITLE1=I'll Take Care of You - ETTA JAMES
TTITLE2=Keep Your Booty Our Of My Bed - KOKO TAYLOR
TTITLE3=Think About You - MARIA MULDAUR
TTITLE4=She's Taking Notes - DEBBIE DAVIES
TTITLE5=Temptation - DIANA KRALL
TTITLE6=You're With Me - DEBORAH COLEMAN
TTITLE7=Nobody's Fault But Mine - KELLY RICHEY
TTITLE8=My Heart Bleeds Blue - DEBORAH COLEMAN
TTITLE9=Some Day - MAVIS STAPLES
TTITLE10=I'm Ashhamed to Sing the Blues - DIANE SCHUUR
TTITLE11=Why Women Cry - MARCIA BELL
TTITLE12=Eyes Of a Woman - KELLY RICHEY
TTITLE13=Nature's Disappearing - DEBBIE DAVIES
TTITLE14=Something - SARAH VAUGHAN
TTITLE15=Lie No Better - ETTA JAMES
TTITLE16=Good Day for the Blues - RUTH BROWN
TTITLE17=Cry Me a River - DINAH WASHINGTON
EXTD=
EXTT0=
EXTT1=
EXTT2=
EXTT3=
EXTT4=
EXTT5=
EXTT6=
EXTT7=
EXTT8=
EXTT9=
EXTT10=
EXTT11=
EXTT12=
EXTT13=
EXTT14=
EXTT15=
EXTT16=
EXTT17=
PLAYORDER=
